<svg id="visual" viewBox="0 0 900 600" width="900" height="600" xmlns="http://www.w3.org/2000/svg" xmlns:xlink="http://www.w3.org/1999/xlink" version="1.1"><g transform="translate(426.38616062721115 273.1266117767595)"><path d="M153.1 -252.4C191.2 -243.2 209.9 -187.6 239.2 -137.8C268.4 -88 308.2 -44 323.7 8.9C339.1 61.8 330.2 123.7 288.7 152.2C247.2 180.8 173.1 176.1 119.5 204.1C66 232 33 292.5 -7.2 305C-47.5 317.6 -95 282.2 -149.1 254.6C-203.3 227 -264 207.3 -279.3 166.1C-294.5 125 -264.3 62.5 -260.6 2.1C-257 -58.3 -280.1 -116.7 -261.7 -152.3C-243.2 -188 -183.4 -200.9 -132.9 -203C-82.3 -205.1 -41.2 -196.3 8.2 -210.5C57.5 -224.6 115 -261.7 153.1 -252.4" fill="#7b7b7b"></path></g></svg>